# Blender v2.80 (sub 35) OBJ File: ''
# www.blender.org
o Cube
v 1.122836 0.929844 -0.849002
v 0.920089 -0.950097 -0.688025
v 1.061031 0.768458 1.037111
v 0.848950 -0.888165 0.840830
v -1.060247 0.730717 -0.931756
v -0.872160 -0.703825 -0.866873
v -0.936711 0.777579 0.897340
v -0.863887 -0.955863 0.884777
v -0.966990 -0.809392 -0.563831
v -0.979221 -0.956908 -0.024352
v -0.946283 -0.964262 0.415507
v -0.900618 -0.936401 0.656899
v 1.098162 1.006511 -0.602920
v 0.944913 0.909768 -0.202686
v 0.928540 0.820244 0.102685
v 0.977980 0.744790 0.746643
v -0.936003 0.832712 0.776760
v -0.873092 0.928720 0.208867
v -1.064980 1.019500 -0.133778
v -1.062072 1.049173 -0.633041
v 0.908850 -1.092480 0.445070
v 0.854086 -0.997171 0.147519
v 0.908273 -1.057148 -0.198079
v 0.966487 -0.930060 -0.507510
v 1.123365 0.814120 -0.779472
v 1.000281 0.332982 -0.782240
v 0.830461 0.080799 -0.932935
v 0.791020 -0.171201 -0.846754
v 0.895249 -0.591402 -0.747443
v -0.873994 -0.649962 0.907402
v -0.945977 -0.396846 1.017545
v -1.035116 -0.120692 0.994798
v -0.881754 0.194827 0.926981
v -0.782322 0.592422 0.852942
v 0.967814 0.566537 1.008959
v 0.967891 0.291908 0.964231
v 1.004073 0.090781 0.975134
v 0.868650 -0.436485 0.988493
v 0.841157 -0.850845 0.910654
v -0.838372 0.677734 -1.069893
v -0.824092 0.337513 -0.950289
v -0.813957 -0.031020 -0.941510
v -0.739971 -0.421579 -0.987465
v -0.942258 -0.651952 -0.960988
v 1.291808 0.833409 -0.431756
v 1.104110 0.485411 -0.505937
v 0.896339 0.178064 -0.639043
v 0.858188 -0.229744 -0.512078
v 1.043289 -0.587216 -0.554944
v 1.238274 0.781409 -0.173321
v 1.152692 0.588368 -0.045323
v 1.009942 0.071389 -0.143465
v 1.028587 -0.303405 -0.130096
v 1.137697 -0.688740 -0.151474
v 1.035943 0.675863 0.114833
v 1.033706 0.417004 0.341533
v 1.000160 0.228478 0.216744
v 1.021432 -0.400670 0.233209
v 0.972770 -0.824856 0.155213
v 0.973313 0.437606 0.681984
v 1.054107 0.389027 0.724878
v 1.173807 0.062269 0.629985
v 1.087240 -0.364691 0.550472
v 1.142832 -0.812171 0.591202
v -0.812990 0.677663 0.562853
v -0.907851 0.218197 0.496202
v -1.044769 -0.132559 0.585533
v -0.882905 -0.331252 0.433198
v -0.875677 -0.648576 0.548561
v -0.791493 0.691279 0.122382
v -0.931977 0.178195 0.005488
v -0.966331 -0.166947 0.207188
v -0.926300 -0.330362 0.171469
v -0.949739 -0.612976 0.346229
v -1.048703 0.752858 -0.396118
v -1.039512 0.288834 -0.286409
v -1.123049 0.006890 -0.265666
v -1.021352 -0.161891 -0.292405
v -1.088175 -0.558072 -0.161419
v -1.048298 0.707538 -0.527864
v -0.898028 0.364382 -0.669451
v -0.930040 0.003916 -0.562578
v -0.827940 -0.278712 -0.668831
v -0.840441 -0.547080 -0.647376
v 0.514905 -1.038702 -0.686597
v 0.151338 -0.942485 -0.832708
v -0.091575 -0.922040 -0.707291
v -0.194933 -0.940158 -0.719543
v -0.741015 -0.853628 -0.790666
v 0.768709 0.959459 0.950318
v 0.358236 0.901195 0.834173
v 0.064407 0.914711 0.756347
v -0.316032 0.763778 0.793116
v -0.832580 0.838637 0.928432
v -0.686429 -0.929499 0.889413
v -0.329699 -0.875421 0.969450
v -0.026680 -0.991429 1.149543
v 0.329203 -0.837303 1.080501
v 0.542355 -0.929779 0.929384
v -0.602621 0.838737 -0.931856
v -0.282347 0.974215 -0.791140
v 0.059545 1.097640 -0.800985
v 0.423482 1.043574 -0.954600
v 0.811028 0.987285 -1.044688
v 0.574712 -1.151172 -0.583036
v 0.259780 -0.998531 -0.577613
v 0.046591 -0.942947 -0.657934
v -0.304915 -0.933042 -0.472765
v -0.683601 -1.015909 -0.513491
v 0.645342 -1.051159 -0.107554
v 0.493309 -1.125997 -0.157763
v 0.163535 -0.929546 -0.204634
v -0.327070 -1.038982 -0.182411
v -0.802945 -1.112786 -0.127283
v 0.588715 -1.142683 0.345116
v 0.434440 -1.073006 0.346813
v 0.081608 -1.062141 0.265984
v -0.419190 -1.019750 0.242767
v -0.793106 -1.078314 0.397751
v 0.689581 -0.934595 0.624091
v 0.299398 -1.080838 0.713406
v -0.011289 -1.056249 0.701359
v -0.366239 -1.030853 0.672950
v -0.728189 -1.008116 0.597026
v -0.615142 1.070427 -0.551393
v -0.177607 1.227633 -0.478709
v 0.028029 1.167016 -0.595938
v 0.382932 1.032862 -0.697983
v 0.731340 0.984986 -0.704462
v -0.590701 1.092760 -0.133125
v -0.213006 1.029416 -0.109834
v 0.083178 0.975280 -0.249270
v 0.255180 0.854897 -0.308988
v 0.662238 0.877584 -0.261196
v -0.708453 0.993842 0.259970
v -0.225294 0.958278 0.208686
v 0.024280 0.969466 0.104135
v 0.397366 0.882694 0.105057
v 0.585917 0.914130 0.170916
v -0.821417 0.877936 0.679406
v -0.383798 0.920508 0.546706
v 0.081205 0.917630 0.417792
v 0.374988 0.972726 0.584307
v 0.727144 0.947540 0.631941
v -0.763398 -0.627569 -1.008180
v -0.320876 -0.634543 -0.739174
v -0.078474 -0.644342 -0.715150
v 0.204150 -0.614145 -0.688648
v 0.639104 -0.722393 -0.815646
v -0.678619 -0.410265 -1.052946
v -0.305321 -0.267136 -0.944152
v 0.027310 -0.278120 -0.973045
v 0.345787 -0.282864 -0.883232
v 0.635686 -0.369922 -0.929284
v -0.740448 -0.038615 -0.979366
v -0.290195 0.126671 -1.032497
v -0.067506 0.102415 -1.069413
v 0.298519 0.006348 -1.118784
v 0.657391 -0.103142 -0.956578
v -0.453746 0.290068 -1.056053
v -0.338499 0.351435 -0.995751
v -0.033653 0.366635 -1.241148
v 0.195884 0.226173 -1.164071
v 0.516289 0.226624 -1.049208
v -0.521182 0.467085 -0.973518
v -0.218957 0.696172 -0.919771
v 0.081720 0.750450 -1.054237
v 0.264428 0.753881 -1.190205
v 0.765490 0.688795 -1.000377
v 0.633927 -0.628001 1.041560
v 0.350956 -0.520959 1.026759
v 0.069051 -0.492988 1.008724
v -0.369765 -0.524602 0.905028
v -0.680666 -0.638266 0.981765
v 0.513911 -0.302218 1.068779
v 0.181607 -0.138829 0.960908
v -0.013074 -0.168143 0.964100
v -0.436257 -0.190552 0.936060
v -0.846336 -0.360445 1.086614
v 0.591806 -0.004405 1.132948
v 0.237070 0.050701 1.085563
v 0.015773 -0.032860 0.966175
v -0.386248 -0.003253 0.995588
v -0.846628 -0.112095 1.201216
v 0.723893 0.412975 1.060635
v 0.257925 0.256124 0.997704
v 0.118621 0.286656 0.990837
v -0.267155 0.155085 1.053856
v -0.672781 0.164939 1.104759
v 0.667375 0.619057 1.018324
v 0.279965 0.622635 1.064045
v 0.058962 0.464434 0.945155
v -0.302686 0.486007 1.027412
v -0.600135 0.522574 1.036629
vt 0.583333 0.200000
vt 0.625000 0.200000
vt 0.625000 0.250000
vt 0.583333 0.250000
vt 0.583333 0.458333
vt 0.625000 0.458333
vt 0.625000 0.500000
vt 0.583333 0.500000
vt 0.583333 0.700000
vt 0.625000 0.700000
vt 0.625000 0.750000
vt 0.583333 0.750000
vt 0.583333 0.950000
vt 0.625000 0.950000
vt 0.625000 1.000000
vt 0.583333 1.000000
vt 0.333333 0.700000
vt 0.375000 0.700000
vt 0.375000 0.750000
vt 0.333333 0.750000
vt 0.833333 0.708333
vt 0.875000 0.708333
vt 0.875000 0.750000
vt 0.833333 0.750000
vt 0.333333 0.500000
vt 0.375000 0.500000
vt 0.375000 0.550000
vt 0.333333 0.550000
vt 0.375000 0.600000
vt 0.333333 0.600000
vt 0.375000 0.650000
vt 0.333333 0.650000
vt 0.583333 0.750000
vt 0.625000 0.750000
vt 0.625000 0.800000
vt 0.583333 0.800000
vt 0.625000 0.850000
vt 0.583333 0.850000
vt 0.625000 0.900000
vt 0.583333 0.900000
vt 0.625000 0.550000
vt 0.583333 0.550000
vt 0.625000 0.600000
vt 0.583333 0.600000
vt 0.625000 0.650000
vt 0.583333 0.650000
vt 0.583333 0.000000
vt 0.625000 0.000000
vt 0.625000 0.050000
vt 0.583333 0.050000
vt 0.625000 0.100000
vt 0.583333 0.100000
vt 0.625000 0.150000
vt 0.583333 0.150000
vt 0.375000 0.650000
vt 0.416667 0.650000
vt 0.416667 0.700000
vt 0.375000 0.700000
vt 0.458333 0.650000
vt 0.458333 0.700000
vt 0.500000 0.650000
vt 0.500000 0.700000
vt 0.541667 0.650000
vt 0.541667 0.700000
vt 0.375000 0.600000
vt 0.416667 0.600000
vt 0.458333 0.600000
vt 0.500000 0.600000
vt 0.541667 0.600000
vt 0.375000 0.550000
vt 0.416667 0.550000
vt 0.458333 0.550000
vt 0.500000 0.550000
vt 0.541667 0.550000
vt 0.375000 0.500000
vt 0.416667 0.500000
vt 0.458333 0.500000
vt 0.500000 0.500000
vt 0.541667 0.500000
vt 0.125000 0.650000
vt 0.166667 0.650000
vt 0.166667 0.700000
vt 0.125000 0.700000
vt 0.208333 0.650000
vt 0.208333 0.700000
vt 0.250000 0.650000
vt 0.250000 0.700000
vt 0.291667 0.650000
vt 0.291667 0.700000
vt 0.125000 0.600000
vt 0.166667 0.600000
vt 0.208333 0.600000
vt 0.250000 0.600000
vt 0.291667 0.600000
vt 0.125000 0.550000
vt 0.166667 0.550000
vt 0.208333 0.550000
vt 0.250000 0.550000
vt 0.291667 0.550000
vt 0.125000 0.500000
vt 0.166667 0.500000
vt 0.208333 0.500000
vt 0.250000 0.500000
vt 0.291667 0.500000
vt 0.625000 0.708333
vt 0.666667 0.708333
vt 0.666667 0.750000
vt 0.708333 0.708333
vt 0.708333 0.750000
vt 0.750000 0.708333
vt 0.750000 0.750000
vt 0.791667 0.708333
vt 0.791667 0.750000
vt 0.166667 0.750000
vt 0.125000 0.750000
vt 0.208333 0.750000
vt 0.250000 0.750000
vt 0.291667 0.750000
vt 0.416667 0.750000
vt 0.375000 0.750000
vt 0.458333 0.750000
vt 0.500000 0.750000
vt 0.541667 0.750000
vt 0.375000 0.458333
vt 0.416667 0.458333
vt 0.458333 0.458333
vt 0.500000 0.458333
vt 0.541667 0.458333
vt 0.541667 0.250000
vt 0.583333 0.250000
vt 0.583333 0.291667
vt 0.541667 0.291667
vt 0.583333 0.333333
vt 0.541667 0.333333
vt 0.583333 0.375000
vt 0.541667 0.375000
vt 0.583333 0.416667
vt 0.541667 0.416667
vt 0.500000 0.250000
vt 0.500000 0.291667
vt 0.500000 0.333333
vt 0.500000 0.375000
vt 0.500000 0.416667
vt 0.458333 0.250000
vt 0.458333 0.291667
vt 0.458333 0.333333
vt 0.458333 0.375000
vt 0.458333 0.416667
vt 0.416667 0.250000
vt 0.416667 0.291667
vt 0.416667 0.333333
vt 0.416667 0.375000
vt 0.416667 0.416667
vt 0.375000 0.250000
vt 0.375000 0.291667
vt 0.375000 0.333333
vt 0.375000 0.375000
vt 0.375000 0.416667
vt 0.791667 0.500000
vt 0.833333 0.500000
vt 0.833333 0.541667
vt 0.791667 0.541667
vt 0.833333 0.583333
vt 0.791667 0.583333
vt 0.833333 0.625000
vt 0.791667 0.625000
vt 0.833333 0.666667
vt 0.791667 0.666667
vt 0.750000 0.500000
vt 0.750000 0.541667
vt 0.750000 0.583333
vt 0.750000 0.625000
vt 0.750000 0.666667
vt 0.708333 0.500000
vt 0.708333 0.541667
vt 0.708333 0.583333
vt 0.708333 0.625000
vt 0.708333 0.666667
vt 0.666667 0.500000
vt 0.666667 0.541667
vt 0.666667 0.583333
vt 0.666667 0.625000
vt 0.666667 0.666667
vt 0.625000 0.500000
vt 0.625000 0.541667
vt 0.625000 0.583333
vt 0.625000 0.625000
vt 0.625000 0.666667
vt 0.375000 0.150000
vt 0.416667 0.150000
vt 0.416667 0.200000
vt 0.375000 0.200000
vt 0.458333 0.150000
vt 0.458333 0.200000
vt 0.500000 0.150000
vt 0.500000 0.200000
vt 0.541667 0.150000
vt 0.541667 0.200000
vt 0.375000 0.100000
vt 0.416667 0.100000
vt 0.458333 0.100000
vt 0.500000 0.100000
vt 0.541667 0.100000
vt 0.375000 0.050000
vt 0.416667 0.050000
vt 0.458333 0.050000
vt 0.500000 0.050000
vt 0.541667 0.050000
vt 0.375000 0.000000
vt 0.416667 0.000000
vt 0.458333 0.000000
vt 0.500000 0.000000
vt 0.541667 0.000000
vt 0.375000 0.900000
vt 0.416667 0.900000
vt 0.416667 0.950000
vt 0.375000 0.950000
vt 0.458333 0.900000
vt 0.458333 0.950000
vt 0.500000 0.900000
vt 0.500000 0.950000
vt 0.541667 0.900000
vt 0.541667 0.950000
vt 0.375000 0.850000
vt 0.416667 0.850000
vt 0.458333 0.850000
vt 0.500000 0.850000
vt 0.541667 0.850000
vt 0.375000 0.800000
vt 0.416667 0.800000
vt 0.458333 0.800000
vt 0.500000 0.800000
vt 0.541667 0.800000
vt 0.416667 0.750000
vt 0.458333 0.750000
vt 0.500000 0.750000
vt 0.541667 0.750000
vt 0.875000 0.500000
vt 0.875000 0.541667
vt 0.875000 0.583333
vt 0.875000 0.625000
vt 0.875000 0.666667
vt 0.416667 1.000000
vt 0.375000 1.000000
vt 0.458333 1.000000
vt 0.500000 1.000000
vt 0.541667 1.000000
vt 0.625000 0.250000
vt 0.625000 0.291667
vt 0.625000 0.333333
vt 0.625000 0.375000
vt 0.625000 0.416667
vt 0.416667 0.250000
vt 0.375000 0.250000
vt 0.458333 0.250000
vt 0.500000 0.250000
vt 0.541667 0.250000
vn -0.3722 0.9021 0.2185
vn -0.5700 -0.3450 0.7457
vn -0.8587 -0.5124 -0.0040
vn -0.0784 -0.9614 0.2636
vn 0.9815 -0.1741 -0.0803
vn 0.5276 -0.2780 -0.8028
vn 0.8882 0.3683 -0.2746
vn 0.4001 0.8589 0.3196
vn 0.4777 0.7671 0.4282
vn 0.9746 0.2140 0.0661
vn 0.3634 -0.8374 -0.4083
vn 0.3112 -0.9496 -0.0377
vn 0.2538 -0.9672 -0.0030
vn 0.1026 -0.9811 0.1642
vn -0.8152 -0.5636 -0.1332
vn -0.9148 -0.3862 -0.1186
vn -0.8354 -0.4131 0.3626
vn -0.9988 -0.0483 -0.0040
vn -0.0541 0.7754 -0.6292
vn -0.1030 0.9946 0.0104
vn -0.2246 0.9379 0.2644
vn -0.3442 0.9287 0.1380
vn -0.9654 -0.0590 -0.2539
vn -0.8902 0.0018 -0.4556
vn -0.8575 -0.2555 -0.4466
vn -0.8979 0.0754 -0.4337
vn -0.9463 -0.1762 -0.2712
vn -0.9802 -0.0999 0.1707
vn -0.9270 0.2494 0.2801
vn -0.9089 -0.4058 0.0960
vn -0.8584 0.3071 0.4109
vn -0.8960 0.1173 0.4282
vn -0.9597 0.1047 0.2608
vn -0.9558 0.1485 0.2536
vn -0.8782 -0.4777 -0.0231
vn -0.9752 0.2071 -0.0787
vn -0.9718 0.2359 -0.0039
vn -0.9972 0.0345 0.0665
vn -0.9877 -0.1378 -0.0741
vn -0.8898 -0.4506 -0.0722
vn -0.9120 0.4078 0.0444
vn -0.9692 0.2207 0.1096
vn 0.7989 -0.5194 -0.3034
vn 0.9537 0.0204 -0.3000
vn 0.9474 -0.0396 -0.3176
vn 0.9561 0.2347 -0.1757
vn 0.9221 0.3600 0.1418
vn 0.8125 -0.5441 0.2094
vn 0.9644 0.0399 0.2616
vn 0.9990 0.0403 0.0201
vn 0.9452 -0.2860 0.1575
vn 0.8417 0.2226 0.4920
vn 0.9049 -0.3898 -0.1709
vn 0.9003 0.3756 -0.2198
vn 0.9433 -0.0812 -0.3220
vn 0.9239 -0.3485 -0.1581
vn 0.8935 -0.4475 0.0379
vn 0.8823 -0.1341 -0.4512
vn 0.8916 0.3076 -0.3323
vn 0.9652 -0.1760 -0.1935
vn 0.8294 -0.5586 -0.0023
vn 0.9000 -0.3088 -0.3077
vn 0.1910 -0.2900 -0.9378
vn 0.4598 -0.1758 -0.8705
vn 0.5405 -0.2401 -0.8064
vn 0.3760 0.0736 -0.9237
vn 0.5279 -0.1627 -0.8336
vn 0.5587 -0.7001 0.4446
vn 0.8241 0.0025 0.5664
vn 0.8763 -0.2331 0.4216
vn 0.8894 0.1970 0.4126
vn 0.9604 0.2395 0.1421
vn -0.9830 0.1830 0.0113
vn -0.9152 0.3817 -0.1295
vn -0.9533 -0.1977 -0.2285
vn -0.9612 -0.0149 -0.2754
vn -0.9280 -0.2136 -0.3054
vn -0.1863 -0.1871 0.9645
vn -0.3225 -0.4757 0.8183
vn -0.6517 -0.2373 0.7204
vn -0.5876 0.5007 0.6356
vn -0.6125 0.2788 0.7397
vn 0.1963 0.0182 0.9804
vn -0.0125 -0.0427 0.9990
vn -0.3108 -0.0575 0.9487
vn 0.1641 0.1685 0.9719
vn 0.0930 0.1306 0.9871
vn 0.3627 0.0688 0.9294
vn -0.1621 0.2829 0.9453
vn -0.3494 0.1927 0.9169
vn 0.1431 -0.2334 0.9618
vn 0.2942 -0.1147 0.9488
vn 0.2877 -0.1328 0.9485
vn -0.2941 -0.2743 0.9156
vn -0.1739 -0.3184 0.9319
vn -0.0000 -0.1876 0.9822
vn 0.4514 -0.3751 0.8096
vn 0.2949 -0.0981 0.9505
vn -0.2090 -0.0321 0.9774
vn -0.0312 0.1435 0.9892
vn -0.1502 -0.0135 0.9886
vn 0.3295 -0.0838 0.9404
vn 0.1851 -0.4998 0.8461
vn 0.2135 -0.1307 0.9682
vn 0.0328 0.2277 0.9732
vn -0.3225 0.2423 0.9150
vn 0.0059 -0.0431 0.9991
vn -0.0429 -0.0782 -0.9960
vn 0.0635 0.2843 -0.9566
vn -0.5142 0.4330 -0.7404
vn -0.0773 0.1883 -0.9791
vn 0.3403 -0.0878 -0.9362
vn -0.3073 0.0052 -0.9516
vn 0.0500 -0.0933 -0.9944
vn -0.4603 -0.2489 -0.8522
vn -0.1253 -0.4207 -0.8985
vn 0.3671 -0.0700 -0.9275
vn -0.6084 0.0160 -0.7935
vn 0.0729 -0.0148 -0.9972
vn -0.1293 -0.2427 -0.9615
vn -0.0128 -0.4462 -0.8948
vn 0.0328 -0.4259 -0.9042
vn -0.4374 0.1391 -0.8884
vn 0.4384 -0.4156 -0.7969
vn -0.0263 -0.5303 -0.8474
vn 0.1784 -0.5793 -0.7954
vn -0.3040 -0.3397 -0.8900
vn -0.2504 -0.7583 -0.6019
vn 0.2801 -0.3248 -0.9034
vn 0.1049 -0.0266 -0.9941
vn -0.1840 0.2345 -0.9545
vn 0.0279 0.0156 -0.9995
vn 0.4494 0.8923 -0.0436
vn 0.0163 0.9911 -0.1322
vn 0.0601 0.9969 -0.0506
vn 0.0347 0.9893 0.1414
vn 0.0347 0.9770 0.2106
vn 0.0991 0.9915 0.0837
vn -0.0771 0.9946 -0.0696
vn 0.3484 0.9351 -0.0646
vn 0.1340 0.9828 0.1268
vn 0.1185 0.9606 0.2512
vn -0.1298 0.9710 0.2008
vn 0.0136 0.9449 0.3272
vn 0.4963 0.7551 0.4284
vn 0.4042 0.8078 0.4291
vn -0.1366 0.9672 0.2142
vn 0.0995 0.9892 -0.1078
vn 0.1465 0.9879 0.0511
vn 0.2227 0.9709 -0.0886
vn -0.2116 0.8424 -0.4955
vn -0.1608 0.8185 -0.5516
vn -0.4191 -0.8583 0.2962
vn 0.0573 -0.9949 0.0827
vn -0.0784 -0.9969 -0.0096
vn -0.0510 -0.9986 -0.0169
vn 0.1819 -0.9364 0.3001
vn -0.6221 -0.7814 0.0495
vn 0.1705 -0.9828 0.0703
vn 0.0672 -0.9914 -0.1124
vn -0.2685 -0.9562 -0.1168
vn 0.0228 -0.9990 -0.0375
vn -0.6137 -0.7375 -0.2819
vn 0.1705 -0.9531 -0.2501
vn 0.0838 -0.9875 -0.1336
vn -0.4310 -0.9006 0.0554
vn -0.1668 -0.9856 0.0264
vn -0.5322 -0.7551 -0.3829
vn 0.0302 -0.9592 -0.2810
vn 0.0003 -0.9989 -0.0466
vn -0.1737 -0.9790 -0.1067
vn -0.2726 -0.9137 -0.3014
vn 0.1708 0.4851 -0.8576
vn 0.1336 0.2790 -0.9509
vn -0.3142 0.4632 -0.8287
vn -0.3221 0.6190 -0.7163
vn 0.1428 0.2608 -0.9548
vn -0.1075 -0.9859 0.1283
vn -0.0407 -0.9267 0.3737
vn -0.2855 -0.9168 0.2793
vn 0.2074 -0.9162 0.3429
vn 0.2285 -0.8996 0.3722
vn -0.0867 0.1039 0.9908
vn -0.1092 0.4566 0.8829
vn -0.4278 0.4867 0.7617
vn 0.0509 0.5022 0.8632
vn 0.2185 0.5538 0.8035
vn 0.6192 0.7663 -0.1715
vn -0.0660 0.9921 0.1070
vn -0.1188 0.9859 0.1180
vn -0.1143 0.9558 0.2708
vn 0.1302 0.9269 0.3519
s off
f 140/1/1 17/2/1 7/3/1 94/4/1
f 194/5/2 94/6/2 7/7/2 34/8/2
f 80/9/3 20/10/3 5/11/3 40/12/3
f 120/13/4 21/14/4 4/15/4 99/16/4
f 60/17/5 16/18/5 3/19/5 35/20/5
f 169/21/6 104/22/6 1/23/6 25/24/6
f 25/25/7 1/26/7 13/27/7 45/28/7
f 45/28/8 13/27/8 14/29/8 50/30/8
f 50/30/9 14/29/9 15/31/9 55/32/9
f 55/32/10 15/31/10 16/18/10 60/17/10
f 85/33/11 2/34/11 24/35/11 105/36/11
f 105/36/12 24/35/12 23/37/12 110/38/12
f 110/38/13 23/37/13 22/39/13 115/40/13
f 115/40/14 22/39/14 21/14/14 120/13/14
f 34/8/15 7/7/15 17/41/15 65/42/15
f 65/42/16 17/41/16 18/43/16 70/44/16
f 70/44/17 18/43/17 19/45/17 75/46/17
f 75/46/18 19/45/18 20/10/18 80/9/18
f 100/47/19 5/48/19 20/49/19 125/50/19
f 125/50/20 20/49/20 19/51/20 130/52/20
f 130/52/21 19/51/21 18/53/21 135/54/21
f 135/54/22 18/53/22 17/2/22 140/1/22
f 10/55/23 79/56/23 84/57/23 9/58/23
f 79/56/24 78/59/24 83/60/24 84/57/24
f 78/59/25 77/61/25 82/62/25 83/60/25
f 77/61/26 76/63/26 81/64/26 82/62/26
f 76/63/27 75/46/27 80/9/27 81/64/27
f 11/65/28 74/66/28 79/56/28 10/55/28
f 74/66/29 73/67/29 78/59/29 79/56/29
f 73/67/30 72/68/30 77/61/30 78/59/30
f 72/68/31 71/69/31 76/63/31 77/61/31
f 71/69/32 70/44/32 75/46/32 76/63/32
f 12/70/33 69/71/33 74/66/33 11/65/33
f 69/71/34 68/72/34 73/67/34 74/66/34
f 68/72/35 67/73/35 72/68/35 73/67/35
f 67/73/36 66/74/36 71/69/36 72/68/36
f 66/74/37 65/42/37 70/44/37 71/69/37
f 8/75/38 30/76/38 69/71/38 12/70/38
f 30/76/39 31/77/39 68/72/39 69/71/39
f 31/77/40 32/78/40 67/73/40 68/72/40
f 32/78/41 33/79/41 66/74/41 67/73/41
f 33/79/42 34/8/42 65/42/42 66/74/42
f 22/80/43 59/81/43 64/82/43 21/83/43
f 59/81/44 58/84/44 63/85/44 64/82/44
f 58/84/45 57/86/45 62/87/45 63/85/45
f 57/86/46 56/88/46 61/89/46 62/87/46
f 56/88/47 55/32/47 60/17/47 61/89/47
f 23/90/48 54/91/48 59/81/48 22/80/48
f 54/91/49 53/92/49 58/84/49 59/81/49
f 53/92/50 52/93/50 57/86/50 58/84/50
f 52/93/51 51/94/51 56/88/51 57/86/51
f 51/94/52 50/30/52 55/32/52 56/88/52
f 24/95/53 49/96/53 54/91/53 23/90/53
f 49/96/54 48/97/54 53/92/54 54/91/54
f 48/97/55 47/98/55 52/93/55 53/92/55
f 47/98/56 46/99/56 51/94/56 52/93/56
f 46/99/57 45/28/57 50/30/57 51/94/57
f 2/100/58 29/101/58 49/96/58 24/95/58
f 29/101/59 28/102/59 48/97/59 49/96/59
f 28/102/60 27/103/60 47/98/60 48/97/60
f 27/103/61 26/104/61 46/99/61 47/98/61
f 26/104/62 25/25/62 45/28/62 46/99/62
f 85/105/63 149/106/63 29/107/63 2/34/63
f 149/106/64 154/108/64 28/109/64 29/107/64
f 154/108/65 159/110/65 27/111/65 28/109/65
f 159/110/66 164/112/66 26/113/66 27/111/66
f 164/112/67 169/21/67 25/24/67 26/113/67
f 21/83/68 64/82/68 39/114/68 4/115/68
f 64/82/69 63/85/69 38/116/69 39/114/69
f 63/85/70 62/87/70 37/117/70 38/116/70
f 62/87/71 61/89/71 36/118/71 37/117/71
f 61/89/72 60/17/72 35/20/72 36/118/72
f 9/58/73 84/57/73 44/119/73 6/120/73
f 84/57/74 83/60/74 43/121/74 44/119/74
f 83/60/75 82/62/75 42/122/75 43/121/75
f 82/62/76 81/64/76 41/123/76 42/122/76
f 81/64/77 80/9/77 40/12/77 41/123/77
f 95/124/78 174/125/78 30/76/78 8/75/78
f 174/125/79 179/126/79 31/77/79 30/76/79
f 179/126/80 184/127/80 32/78/80 31/77/80
f 184/127/81 189/128/81 33/79/81 32/78/81
f 189/128/82 194/5/82 34/8/82 33/79/82
f 36/129/83 35/130/83 190/131/83 185/132/83
f 185/132/84 190/131/84 191/133/84 186/134/84
f 186/134/85 191/133/85 192/135/85 187/136/85
f 187/136/86 192/135/86 193/137/86 188/138/86
f 188/138/87 193/137/87 194/5/87 189/128/87
f 37/139/88 36/129/88 185/132/88 180/140/88
f 180/140/89 185/132/89 186/134/89 181/141/89
f 181/141/90 186/134/90 187/136/90 182/142/90
f 182/142/91 187/136/91 188/138/91 183/143/91
f 183/143/92 188/138/92 189/128/92 184/127/92
f 38/144/93 37/139/93 180/140/93 175/145/93
f 175/145/94 180/140/94 181/141/94 176/146/94
f 176/146/95 181/141/95 182/142/95 177/147/95
f 177/147/96 182/142/96 183/143/96 178/148/96
f 178/148/97 183/143/97 184/127/97 179/126/97
f 39/149/98 38/144/98 175/145/98 170/150/98
f 170/150/99 175/145/99 176/146/99 171/151/99
f 171/151/100 176/146/100 177/147/100 172/152/100
f 172/152/101 177/147/101 178/148/101 173/153/101
f 173/153/102 178/148/102 179/126/102 174/125/102
f 4/154/103 39/149/103 170/150/103 99/155/103
f 99/155/104 170/150/104 171/151/104 98/156/104
f 98/156/105 171/151/105 172/152/105 97/157/105
f 97/157/106 172/152/106 173/153/106 96/158/106
f 96/158/107 173/153/107 174/125/107 95/124/107
f 41/159/108 40/160/108 165/161/108 160/162/108
f 160/162/109 165/161/109 166/163/109 161/164/109
f 161/164/110 166/163/110 167/165/110 162/166/110
f 162/166/111 167/165/111 168/167/111 163/168/111
f 163/168/112 168/167/112 169/21/112 164/112/112
f 42/169/113 41/159/113 160/162/113 155/170/113
f 155/170/114 160/162/114 161/164/114 156/171/114
f 156/171/115 161/164/115 162/166/115 157/172/115
f 157/172/116 162/166/116 163/168/116 158/173/116
f 158/173/117 163/168/117 164/112/117 159/110/117
f 43/174/118 42/169/118 155/170/118 150/175/118
f 150/175/119 155/170/119 156/171/119 151/176/119
f 151/176/120 156/171/120 157/172/120 152/177/120
f 152/177/121 157/172/121 158/173/121 153/178/121
f 153/178/122 158/173/122 159/110/122 154/108/122
f 44/179/123 43/174/123 150/175/123 145/180/123
f 145/180/124 150/175/124 151/176/124 146/181/124
f 146/181/125 151/176/125 152/177/125 147/182/125
f 147/182/126 152/177/126 153/178/126 148/183/126
f 148/183/127 153/178/127 154/108/127 149/106/127
f 6/184/128 44/179/128 145/180/128 89/185/128
f 89/185/129 145/180/129 146/181/129 88/186/129
f 88/186/130 146/181/130 147/182/130 87/187/130
f 87/187/131 147/182/131 148/183/131 86/188/131
f 86/188/132 148/183/132 149/106/132 85/105/132
f 15/189/133 139/190/133 144/191/133 16/192/133
f 139/190/134 138/193/134 143/194/134 144/191/134
f 138/193/135 137/195/135 142/196/135 143/194/135
f 137/195/136 136/197/136 141/198/136 142/196/136
f 136/197/137 135/54/137 140/1/137 141/198/137
f 14/199/138 134/200/138 139/190/138 15/189/138
f 134/200/139 133/201/139 138/193/139 139/190/139
f 133/201/140 132/202/140 137/195/140 138/193/140
f 132/202/141 131/203/141 136/197/141 137/195/141
f 131/203/142 130/52/142 135/54/142 136/197/142
f 13/204/143 129/205/143 134/200/143 14/199/143
f 129/205/144 128/206/144 133/201/144 134/200/144
f 128/206/145 127/207/145 132/202/145 133/201/145
f 127/207/146 126/208/146 131/203/146 132/202/146
f 126/208/147 125/50/147 130/52/147 131/203/147
f 1/209/148 104/210/148 129/205/148 13/204/148
f 104/210/149 103/211/149 128/206/149 129/205/149
f 103/211/150 102/212/150 127/207/150 128/206/150
f 102/212/151 101/213/151 126/208/151 127/207/151
f 101/213/152 100/47/152 125/50/152 126/208/152
f 11/214/153 119/215/153 124/216/153 12/217/153
f 119/215/154 118/218/154 123/219/154 124/216/154
f 118/218/155 117/220/155 122/221/155 123/219/155
f 117/220/156 116/222/156 121/223/156 122/221/156
f 116/222/157 115/40/157 120/13/157 121/223/157
f 10/224/158 114/225/158 119/215/158 11/214/158
f 114/225/159 113/226/159 118/218/159 119/215/159
f 113/226/160 112/227/160 117/220/160 118/218/160
f 112/227/161 111/228/161 116/222/161 117/220/161
f 111/228/162 110/38/162 115/40/162 116/222/162
f 9/229/163 109/230/163 114/225/163 10/224/163
f 109/230/164 108/231/164 113/226/164 114/225/164
f 108/231/165 107/232/165 112/227/165 113/226/165
f 107/232/166 106/233/166 111/228/166 112/227/166
f 106/233/167 105/36/167 110/38/167 111/228/167
f 6/120/168 89/234/168 109/230/168 9/229/168
f 89/234/169 88/235/169 108/231/169 109/230/169
f 88/235/170 87/236/170 107/232/170 108/231/170
f 87/236/171 86/237/171 106/233/171 107/232/171
f 86/237/172 85/33/172 105/36/172 106/233/172
f 40/160/173 5/238/173 100/239/173 165/161/173
f 165/161/174 100/239/174 101/240/174 166/163/174
f 166/163/175 101/240/175 102/241/175 167/165/175
f 167/165/176 102/241/176 103/242/176 168/167/176
f 168/167/177 103/242/177 104/22/177 169/21/177
f 12/217/178 124/216/178 95/243/178 8/244/178
f 124/216/179 123/219/179 96/245/179 95/243/179
f 123/219/180 122/221/180 97/246/180 96/245/180
f 122/221/181 121/223/181 98/247/181 97/246/181
f 121/223/182 120/13/182 99/16/182 98/247/182
f 35/130/183 3/248/183 90/249/183 190/131/183
f 190/131/184 90/249/184 91/250/184 191/133/184
f 191/133/185 91/250/185 92/251/185 192/135/185
f 192/135/186 92/251/186 93/252/186 193/137/186
f 193/137/187 93/252/187 94/6/187 194/5/187
f 16/192/188 144/191/188 90/253/188 3/254/188
f 144/191/189 143/194/189 91/255/189 90/253/189
f 143/194/190 142/196/190 92/256/190 91/255/190
f 142/196/191 141/198/191 93/257/191 92/256/191
f 141/198/192 140/1/192 94/4/192 93/257/192
